<?xml version="1.0" encoding="UTF-8"?>
<svg width="17px" height="19px" viewBox="0 0 17 19" version="1.1" xmlns="http://www.w3.org/2000/svg" xmlns:xlink="http://www.w3.org/1999/xlink">
    <title>Triangle Copy 6</title>
    <g id="Page-1" stroke="none" stroke-width="1" fill="none" fill-rule="evenodd">
        <g id="01-Productly" transform="translate(-750.000000, -486.000000)" fill="#FF9900">
            <g id="02-Header" transform="translate(545.000000, 108.000000)">
                <g id="Left-side" transform="translate(0.000000, 83.000000)">
                    <g id="Button" transform="translate(0.000000, 278.000000)">
                        <g id="button" transform="translate(205.500000, 15.000000)">
                            <path d="M9.46967599,4.64844919 L17.5027073,18.3046024 C17.8177292,18.8401396 17.6389662,19.5296541 17.1034289,19.844676 C16.9305427,19.9463738 16.7336107,20 16.5330313,20 L0.466968723,20 C-0.154351621,20 -0.658031277,19.4963203 -0.658031277,18.875 C-0.658031277,18.6744206 -0.60440505,18.4774886 -0.502707269,18.3046024 L7.53032401,4.64844919 C7.84534593,4.11291192 8.53486038,3.93414892 9.07039764,4.24917084 C9.23527052,4.34615488 9.37269195,4.48357631 9.46967599,4.64844919 Z" id="Triangle-Copy-6" transform="translate(8.500000, 11.500000) rotate(90.000000) translate(-8.500000, -11.500000) "></path>
                        </g>
                    </g>
                </g>
            </g>
        </g>
    </g>
</svg>