<svg width="605" height="496" xmlns="http://www.w3.org/2000/svg" xmlns:xlink="http://www.w3.org/1999/xlink"><defs><path id="a" d="M1.157.947h169.886v83.235H1.157z"/></defs><g fill="none" fill-rule="evenodd"><path d="M330.352 465.954C207.094 453.421 105.072 363.113 60.37 248 15.667 132.887 183.974 34.828 305.198 29.21 426.42 23.592 520 131.297 520 253.974s-66.39 224.513-189.648 211.98z" fill="#FFE5D2"/><path d="M482.001 343.694c.101-.059.73.77 1.659 2.405.933 1.628 2.094 4.101 3.173 7.293 2.212 6.36 3.6 15.75 2.777 25.99-.816 10.24-3.183 19.227-5.009 25.625-1.868 6.4-3.243 10.285-3.48 10.22-.262-.073.666-4.092 2.2-10.555 1.493-6.462 3.624-15.402 4.422-25.431.803-10.027-.339-19.152-2.174-25.461-1.783-6.34-3.862-9.934-3.568-10.086M488.31 292.45c.117-.052.878 1.34 2.146 3.905a360.274 360.274 0 015.155 10.97c4.18 9.332 9.804 22.394 13.884 37.56 2.005 7.585 3.372 14.96 4.064 21.732.698 6.77.769 12.923.42 18.057-.338 5.138-.987 9.26-1.61 12.063-.618 2.808-1.107 4.32-1.217 4.296-.347-.067 1.18-6.25 1.505-16.42.404-10.15-.93-24.252-4.972-39.247-4.033-15-9.428-28.069-13.29-37.516-1.944-4.727-3.516-8.553-4.605-11.198-1.063-2.656-1.598-4.15-1.48-4.202M254.833 352.595c.217.233-1.906 2.258-4.661 6.017-.684.945-1.427 1.977-2.122 3.157-.76 1.137-1.42 2.44-2.157 3.787-1.368 2.745-2.666 5.864-3.668 9.26-.958 3.407-1.516 6.739-1.817 9.791-.092 1.53-.225 2.987-.187 4.353-.038 1.369.04 2.64.117 3.804.334 4.648 1.056 7.492.748 7.575-.187.064-1.375-2.683-2.064-7.44-.165-1.188-.323-2.494-.353-3.907-.106-1.411-.03-2.921.018-4.511.215-3.17.744-6.646 1.74-10.183a50.201 50.201 0 013.943-9.55c.804-1.373 1.541-2.692 2.383-3.83.776-1.182 1.605-2.204 2.377-3.122 3.113-3.661 5.58-5.354 5.703-5.201M259.816 369.001c.157.25-1.026 1.155-2.571 2.886-.782.854-1.606 1.962-2.417 3.246a25.19 25.19 0 00-2.105 4.454 25 25 0 00-1.088 4.806c-.154 1.51-.188 2.89-.098 4.046.15 2.314.525 3.757.245 3.858-.2.084-1.042-1.236-1.557-3.682-.269-1.22-.379-2.713-.31-4.367a20.9 20.9 0 011.038-5.271 20.923 20.923 0 012.433-4.79c.963-1.346 1.972-2.453 2.934-3.247 1.913-1.61 3.39-2.131 3.496-1.939M190.645 216.107c.097-.084.935.74 2.372 2.313.73.778 1.593 1.758 2.506 2.966.923 1.198 2.032 2.528 3.073 4.126.537.79 1.1 1.615 1.687 2.476.58.867 1.106 1.815 1.692 2.773 1.2 1.903 2.274 4.05 3.443 6.29 2.208 4.545 4.319 9.702 6 15.293 1.627 5.607 2.66 11.085 3.277 16.098.236 2.517.5 4.904.527 7.151.03 1.123.103 2.205.086 3.249-.023 1.041-.047 2.04-.07 2.994-.005 1.91-.213 3.627-.336 5.135a36.1 36.1 0 01-.492 3.85c-.351 2.102-.606 3.25-.734 3.232-.33-.044.292-4.702.24-12.231-.018-.942-.034-1.925-.052-2.953-.022-1.026-.13-2.091-.192-3.194-.093-2.209-.412-4.551-.688-7.019-.702-4.915-1.765-10.277-3.362-15.78-1.651-5.488-3.672-10.568-5.756-15.075-1.107-2.221-2.114-4.36-3.236-6.266-.549-.959-1.037-1.912-1.575-2.785-.544-.87-1.064-1.707-1.561-2.506-4.049-6.348-7.104-9.92-6.849-10.137M211.845 224.879c.16-.142 2.31 1.87 5.044 5.746 1.376 1.93 2.826 4.362 4.238 7.166a64.093 64.093 0 013.722 9.505 64.151 64.151 0 012.04 10.003c.338 3.121.443 5.95.336 8.319-.19 4.739-.903 7.596-1.112 7.564-.302-.037-.06-2.93-.213-7.566-.061-2.316-.3-5.067-.72-8.093a77.512 77.512 0 00-2.125-9.696 77.379 77.379 0 00-3.486-9.295c-1.29-2.77-2.585-5.208-3.792-7.188-2.391-3.973-4.164-6.27-3.932-6.465" fill="#FFF"/><path fill="#FF7B5B" d="M137.61 378.076l-1.629-3.327-45.37 34.665 19.794 32.066 45.162-38.08z"/><path fill="#D7D4D4" d="M92.513 410.155l17.388 30.071 1.112-.496-15.485-28.116z"/><path d="M136.715 377.418l-44.202 32.737s.185.703 1.282 1.136c1.098.434 1.733.323 1.733.323L142 379.81s-2.679-.623-3.65-1.348c-.973-.727-1.634-1.043-1.634-1.043" fill="#F5F3F3"/><path d="M143.135 378.526L94.698 410.88l15.732 29.815 2.534 4.128 48.438-35.85s-5.101-7.614-8.164-12.211c-3.064-4.598-9.077-15.44-9.404-16.135-.328-.695-.699-2.1-.699-2.1" fill="#FF7B5B"/><path fill="#775298" d="M542.58 155.166l1.368-2.795 38.098 29.11-16.62 26.927-37.925-31.977z"/><path fill="#D7D4D4" d="M580.45 182.103l-14.6 25.251-.935-.415 13.003-23.61z"/><path d="M543.333 154.612l37.117 27.491s-.156.59-1.076.954c-.923.364-1.457.271-1.457.271l-39.022-26.708s2.25-.522 3.066-1.132c.816-.61 1.372-.876 1.372-.876" fill="#F5F3F3"/><path d="M537.94 155.544l40.675 27.167-13.21 25.037-2.128 3.467-40.676-30.105s4.285-6.395 6.856-10.255c2.574-3.86 7.623-12.966 7.897-13.55.275-.581.587-1.761.587-1.761" fill="#775298"/><path d="M83.445 102.772s-2.876 1.991-1.439 5.31c1.44 3.32 7.745 13.166 16.264 12.834.35-.012-10.732-18.144-10.732-18.144h-4.093z" fill="#FF7B5B"/><path d="M70.413 284.294s-10.653-9.517-14.063-7.812c-4.167 2.083-28.017 25.451-27.085 36.46.383 4.509 5.632.646 14.985-9.056 9.355-9.7 21.135-5.543 21.135-5.543l5.028-14.05zM96.295 300.343l-12.86-7.715S50.1 323.88 55.308 328.048c3.95 3.16 6.272.325 15.626-9.377 9.353-9.7 21.204-4.122 21.204-4.122l4.157-14.206z" fill="#775298"/><path fill="#F3A683" d="M174.854 197.526l2.412 34.245-53.535-13.946z"/><path d="M123.731 219.003s46.828 2.952 53.063.87c0 0 9.152 89.904-7.132 99.603-16.284 9.702-52.827-4.504-52.827-4.504l9.867-19.401 21.273-1.386V259.54l-1.526.346-22.718-40.883z" fill="#112129"/><path d="M65.032 280.327s-11.779 4.851-7.967 16.631c0 0 40.206 31.527 59.77 24.25 10.962-4.075 22.736-35.173 30.973-61.742l28.987-39.592s-13.671.684-18.232.666c-8.717-.033-34.831-1.537-34.831-1.537s-13.641 71.372-18.502 73.104c-4.86 1.73-40.198-11.78-40.198-11.78" fill="#22343D"/><path d="M134.644 129.487s28.064-26.332 32.913-33.262c4.85-6.93 15.247-30.142 28.062-39.842l-6.235-13.166s3.812-2.078 6.235 3.464c0 0 9.007-18.014 11.086-17.67 2.081.346-4.156 13.86-4.156 13.86s8.664-12.474 11.088-12.126c2.423.346-6.237 14.021-6.237 14.021s9.7-11.25 11.086-9.864c1.386 1.386-7.622 9.864-7.622 9.864s9.7-5.569 10.74-3.733c1.04 1.838-9.7 6.687-9.7 6.687s-1.04 7.97-7.621 11.433c0 0-13.034 35.213-24.814 46.646l-37.84 39.328-6.985-15.64zM101.143 143.134s-26.591 27.817-33.565 32.6c-6.975 4.784-30.283 14.964-40.102 27.691l-13.107-6.36s-2.113 3.791 3.407 6.267c0 0-18.1 8.84-17.772 10.923.326 2.082 13.896-4.028 13.896-4.028s-12.553 8.547-12.229 10.974c.324 2.426 14.078-6.106 14.078-6.106s-11.34 9.594-9.966 10.992c1.371 1.4 9.935-7.527 9.935-7.527s-5.66 9.647-3.832 10.703c1.826 1.056 6.777-9.638 6.777-9.638s7.976-.962 11.504-7.513c0 0 33.353-13.27 44.897-24.943l41.505-29.41-15.426-14.625z" fill="#FFC6B2"/><path d="M111.112 132.047l-13.45 13.166 3.412 14.842s13.25 31.81 15.253 39.57c3.113 12.068-1.923 30.468-1.923 30.468s22.463-1.866 42.902-2.558c20.438-.693 27.124-7.278 27.124-7.278s-17.72-59.02-29.956-75.52c-12.236-16.496-16.686-21.66-16.686-21.66l-18.015 3.938-8.661 5.032z" fill="#FFF"/><path d="M150.582 142.792l14.014-8.954s2.14-9.593-14.759-20.908l-19.816 12.417 20.561 17.445zM100.497 144.172c-7.682 1.078-21.721 20.548-23.287 20.512 0 0 9.88 16.124 17.707 16.647 0 0 34.443-41.208 5.58-37.16" fill="#FFF"/><path d="M127.616 131.503s-11.167-8.344-10.78-11.67c.098-.838 1.646-2.198 2.048-3.405 2.165-6.496-8.274-23.233-14.688-26.76-5.045-2.775-2.834-3.02-13.453 3.29-10.619 6.31-4.569 17.222.173 22.866 4.483 5.335 9.618 7.62 14.237 8.006l6.568 14.588 15.895-6.915z" fill="#FFC6B2"/><path d="M107.467 143.085c-2.113-5.181 1.887-11.707 8.933-14.58 7.049-2.876 14.47-1.006 16.587 4.172 2.11 5.18-4.98 12.965-8.939 14.58-3.958 1.615-14.47 1.006-16.581-4.172M90.917 115.824s-3.622-.2-4.024 2.213c-.403 2.415 6.639 2.415 9.255.604l-5.231-2.817z" fill="#FFC6B2"/><path d="M92.728 118.038c-.688-4.362-5.336-7.605-5.104-11.855 2.227.017 3.658-2.742 2.644-5.1-.399-.927-1.075-1.72-1.507-2.635-.43-.913-.545-2.11.116-2.626.314-.243.737-.286 1.143-.327 3.303-.339 8.962.652 12.002-.475 2.895-1.073 5.996-3.159 5.695-6.704-.263-3.088-2.99-5.591-5.494-7.483-1.435-1.084-5.535-3.92-7.082-3.662-2.361.392-2.934 3.543-3.104 6.18-1.651-1.573-4.088-1.321-5.524-.042-1.436 1.28-2.116 3.313-2.741 5.275-.627 1.964-1.29 4.002-2.708 5.306-1.32 1.216-3.41 2.135-3.135 4.203.325 2.463 3.544 3.34 5.032 5.44-.367-.514-.677 2.775-.466 3.332.635 1.68 2.22 2.792 3.365 4.077 2.44 2.74 3.634 5.497 6.868 7.096" fill="#FF7B5B"/><path d="M112.96 108.064l-8.251 4.268s9.912 7.194 8.252-4.268" fill="#FFF"/><path d="M101.608 109.756c.451.856-.217 2.093-1.49 2.763-1.275.67-2.673.52-3.124-.335-.45-.856.217-2.092 1.491-2.763 1.275-.67 2.672-.52 3.123.335M113.657 101.525c.451.856-.216 2.093-1.49 2.763-1.274.67-2.672.52-3.123-.335-.45-.856.216-2.093 1.49-2.763 1.276-.67 2.672-.52 3.123.335" fill="#FFB2A0"/><path d="M107.2 107.761c-.038-.048.116-.25.473-.508.34-.263.934-.547 1.374-1.02.436-.46.592-1.418-.075-1.553-.694-.235-1.481.56-2.385 1.317l-.663.55c-.205.188-.635.463-1.082.407-.852-.137-1.214-.705-1.541-1.086a7.52 7.52 0 01-1.281-2.478c-.443-1.537-.244-2.53-.138-2.521.149-.007.198.947.76 2.299a8.26 8.26 0 001.325 2.155c.301.366.68.706.95.717.113.006.201-.033.414-.211l.655-.55c.455-.368.85-.74 1.37-1.087.505-.34 1.226-.556 1.872-.336.69.181 1.094.985.974 1.544a2.17 2.17 0 01-.682 1.296c-.68.568-1.288.705-1.671.877-.392.149-.608.241-.649.188" fill="#FF7B5B"/><path d="M105.153 123.83s5.264.03 8.12-1.73c0 0-2.416 2.969-7.25 3.737l-.87-2.007z" fill="#FFA192"/><path d="M107.436 100.224c-.048.26-.784.34-1.562.684-.789.319-1.358.792-1.578.645-.224-.119.148-1.06 1.213-1.507 1.064-.452 1.996-.067 1.927.178M97.12 106.99c-.198-.147.114-.994.871-1.843.767-.867 1.747-1.156 1.85-.913.11.236-.487.785-1.159 1.547-.683.759-1.346 1.37-1.562 1.21" fill="#22343D"/><path d="M93.122 105.683c-.427-.317-.76-1.67.873-3.493 1.648-1.864 3.488-1.536 3.71-1.018.236.509-.377 1.232-1.823 2.871-1.467 1.634-2.298 1.986-2.76 1.64M101.787 98.5c-.236-.44.025-1.726 2.148-2.62 2.153-.926 3.587.095 3.567.625-.004.527-.815.896-2.706 1.711-1.905.8-2.754.766-3.009.285" fill="#FF7B5B"/><path d="M554.6 111.283c.139.137-2.148 2.71-6.892 5.512-4.686 2.799-12.06 5.573-20.54 5.636-8.481.062-15.895-2.603-20.622-5.332-4.784-2.731-7.109-5.271-6.973-5.412.198-.249 2.798 1.893 7.589 4.238 4.744 2.355 11.895 4.692 19.99 4.633 8.099-.061 15.213-2.503 19.923-4.927 4.754-2.416 7.324-4.596 7.525-4.348M502.86 107.397c-.13.284-2.66-.766-6.926-1.717-2.126-.502-4.705-.889-7.577-1.246-2.884-.319-6.07-.572-9.436-.812-3.367-.236-6.59-.507-9.517-.87-2.927-.388-5.557-.85-7.723-1.436-4.35-1.135-6.813-2.478-6.727-2.668.113-.286 2.703.599 7.01 1.374 2.15.41 4.742.728 7.63 1.015 2.894.264 6.09.481 9.461.718 3.374.24 6.602.55 9.527.97 2.922.458 5.544.992 7.689 1.674 4.307 1.315 6.686 2.819 6.59 2.998" fill="#775298"/><g transform="translate(433.31 34.26)"><mask id="b" fill="#fff"><use xlink:href="#a"/></mask><path d="M18.245 17.806c8.086-1.716 16.463-.239 24.616 1.12 8.154 1.358 16.618 2.584 24.59.395C81.842 15.371 92.768.831 107.693.947c6.145.048 11.937 2.672 17.925 4.061 7.434 1.725 15.18 1.54 22.71 2.77 7.533 1.23 15.313 4.26 19.57 10.595 5.05 7.517 3.666 18.121-1.634 25.466-5.299 7.346-13.785 11.818-22.48 14.353-6.065 1.767-12.526 2.789-17.775 6.306-5.309 3.558-8.775 9.284-13.722 13.33-12.412 10.15-31.728 7.24-44.549-2.388-3.221-2.419-6.207-5.226-9.826-6.996-14.72-7.205-35.891 2.333-48.569-10.777-12.874-13.314-11.04-35.632 8.902-39.861" fill="#775298" mask="url(#b)"/></g><path d="M447.516 309.916s13.487 28.909 15.065 23.556c1.574-5.355 1.054-18.211.209-20.047-.85-1.835-6.362-9.944-6.362-9.944l-8.912 6.435z" fill="#FFB2A0"/><path d="M545.04 76.152c1.248 1.598.414-.119 1.827 2.187 5.873-.205 9.815-5.174 9.815-5.174s9.322.246 9.214-1.419c-.106-1.668-8.936-1.045-8.936-1.045s9.341-2.934 8.829-4.398c-.51-1.464-11.294 3.204-11.294 3.204s10.882-6.754 9.274-7.837c-1.606-1.081-12.077 4.815-12.077 4.815s9.1-7.474 7.736-8.437c-1.361-.964-13.983 8.764-13.983 8.764.184-4.785-3.249-4.618-3.249-4.618l.142 11.685s2.127 1.537 2.702 2.273M406.867 23.268c-1.995.367-.449-.326-3.038.464-4.252-4.055-3.688-10.428-3.688-10.428s-7.132-6.004-5.95-7.177c1.19-1.176 7.378 5.152 7.378 5.152s-5.035-8.396-3.68-9.151c1.352-.755 6.32 9.895 6.32 9.895S400.553-.253 402.474.005c1.918.257 5.835 11.616 5.835 11.616S406.467-.008 408.123.176c1.658.183 4.641 15.838 4.641 15.838 3.039-3.7 5.493-1.296 5.493-1.296l-7.703 8.472s-2.77-.09-3.687.078M455.25 72.076c-2.58-.424-8.817 3.721-11.937 10.477-1.747 3.781-2.949 7.623-.944 13.772.944 2.893 2.92 3.256 3.361 4.551.558 1.641-1.289 6.812-1.289 6.812l7.362 2.974c.479-3.553 1.021-7.127 4.641-8.67 1.355-.577 2.805-.942 4.083-1.676 3.449-1.977 5.29-6.302 6.708-9.843 1.057-2.645-5.519-17.337-11.986-18.397" fill="#FFC6B2"/><path d="M446.486 172.48l-12.335-4.95s-36.605 67.883-36.453 86.717c.152 18.833 50.275 56.541 50.275 56.541l8.454-7.306s-15.475-26.985-23.747-36.499c-8.274-9.516 13.806-94.504 13.806-94.504" fill="#FFB2A0"/><path d="M507.727 249.807s27.186-12.898 21.723-14.037c-5.463-1.134-18.238.429-19.998 1.42-1.761.994-9.395 7.146-9.395 7.146l7.67 5.471z" fill="#FFC6B2"/><path d="M458.601 171.89l-18.711 6.808s-18.717 82.325-11.571 95.25c7.142 12.93 27.21 4.374 55.79-11.224l23.937-13.068-7.99-5.318s-27.856 5.458-35.679 10.9c0 0 4.083-11.567 9.526-27.895 5.443-16.33 9.197-33-15.302-55.453M435.57 115.805c0-5.47 1.76-9.426 7.23-9.426 5.47 0 13.03 1.917 13.03 7.388 0 5.473-4.31 14.356-9.781 14.356-5.47 0-10.479-6.846-10.479-12.318" fill="#FFC6B2"/><path d="M439.89 105.595S422.88 87.19 419.478 69.157c-3.404-18.029-9.184-47.286-9.184-47.286l-6.464 1.861s-3.064 39.984 0 46.106c3.06 6.124 18.02 46.892 22.575 57.598l13.483-21.84zM458.162 119.941s1.308-5.726 22.816-13.508c21.507-7.78 62.083-33.002 62.083-33.002l4.049 4.632s-22.048 25.466-34.874 29.933c-12.826 4.468-40.069 22.08-42.872 23.49-4.239 2.132-4.187 4.815-11.202-11.545" fill="#FFC6B2"/><path d="M439.89 105.595s-17.281 5.6-17.281 31.896c0 0 .01 36.013 4.083 42.564 0 0 6.621 1.697 14.876 0 8.655-1.78 17.033-8.165 17.033-8.165l13.593-40.81-1.625-19.12-18.483-3.568s5.302 24.776-13.88 14.125c-3.729-2.07 5.484-16.127 5.484-16.127l-3.8-.795z" fill="#22343D"/><path d="M425.268 126.981l-8.515-17.74s1.22-10.762 16.853-14.619c0 0 1.58 5.425 3.314 7.498 1.731 2.07 6.776 4.276 6.776 4.276l-18.428 20.585zM457.46 134.112l27.076-5.55s4.708-9.754-6.455-21.357c0 0-21.12 1.276-23.854 1.503-2.69.224-.843 2.296-.843 2.296l4.076 23.108zM426.65 171.284s-25.611 47.35-29.842 55.81c0 0 75.555 34.708 106.226-7.069 0 0-17.446-36.927-44.418-50.986l-11.635-3.484-19.877 5.501" fill="#22343D"/><path d="M466.243 90.025s2.918-2.917 4.712-.898c1.795 2.02-6.506 4.937-6.506 4.937l1.794-4.039z" fill="#FFC6B2"/><path d="M519.606 50.236c.028.101-1.099.589-3.25 1.1-2.146.516-5.33.985-9.286 1.065-3.953.08-8.654-.272-13.8-.97-5.149-.682-10.742-1.685-16.628-2.327-5.875-.628-11.525-.743-16.528.065-5.005.795-9.337 2.434-12.648 4.348-3.311 1.93-5.615 4.07-7.03 5.69-1.422 1.622-2.063 2.658-2.207 2.57-.079-.04.349-1.207 1.638-3.024 1.28-1.813 3.541-4.204 6.912-6.367 3.369-2.148 7.846-3.995 13.049-4.919 5.21-.937 11.036-.865 17.013-.224 5.984.652 11.584 1.712 16.673 2.48 5.088.784 9.687 1.264 13.56 1.354 7.762.217 12.46-1.161 12.532-.84" fill="#775298"/><path d="M451.387 88.369c-.008.114-.84.195-2.108-.226-.313-.11-.684-.255-1.029-.571a1.674 1.674 0 01-.425-.62 1.4 1.4 0 01.01-1.06c.04-.06.038-.206.118-.209l.247-.008c.158-.022.345.03.527.064.335.064.443.054.682.07.418.01.851-.033 1.285-.129 1.77-.373 2.956-1.662 3.488-2.722.557-1.067.606-1.87.755-1.86.105-.014.312.84-.149 2.127a5.378 5.378 0 01-1.3 1.99 5.436 5.436 0 01-2.589 1.378 5.686 5.686 0 01-1.527.132 5.887 5.887 0 01-.657-.076c-.091-.015-.08-.035-.098-.024-.011.01-.016.028-.015.054a.91.91 0 00.197.345c.19.214.465.373.734.507 1.096.538 1.875.697 1.854.838" fill="#FF7B5B"/><path d="M445.313 88.684l9.975 3.93s-8.766 6.045-9.975-3.93" fill="#FFF"/><path d="M459.547 90.575c-.354.673-1.453.79-2.454.263-1.002-.526-1.526-1.499-1.173-2.17.354-.674 1.453-.792 2.455-.265s1.526 1.499 1.172 2.172M448.415 84.673c-.303.697-1.389.9-2.427.45s-1.636-1.38-1.334-2.077c.301-.698 1.389-.9 2.427-.45s1.636 1.38 1.334 2.077" fill="#FFB2A0"/><path d="M444.72 99.623s3.497 2.929 7.145 1.986c0 0-1.258 1.885-6.1 1.193 0 0 .402-2.078-1.045-3.179" fill="#FFA192"/><path d="M458.59 84.31a.79.79 0 11-1.582 0 .79.79 0 011.582 0M452.123 81.981a.79.79 0 11-1.58.001.79.79 0 011.58 0" fill="#22343D"/><path d="M461.129 82.206c-.244.103-.715-.468-1.43-.93-.698-.482-1.407-.699-1.406-.963-.023-.253.966-.46 1.927.185.962.64 1.153 1.631.909 1.708M449.732 78.371c-.017-.246.832-.557 1.969-.527 1.157.024 2.011.586 1.892.82-.109.237-.914.135-1.929.116-1.02-.03-1.916-.14-1.932-.409" fill="#775298"/><path d="M453.293 321.663s4.15 14.727 8.433 13.521c4.285-1.204 1.063-21.758 1.063-21.758l-4.274-6.756s4.015 34.405-5.222 14.993M505.613 240.015s3.017-3.292 6.674-3.84c3.658-.55 16.733-2.104 18.653-.367 1.921 1.738-10.597 7.563-10.597 7.563s4.361-2.78 2.55-3.813c-3.2-1.83-17.28.457-17.28.457M500.425 243.958l4.093 8.31 2.234-1.24-5.459-8.186zM454.653 300.15l-10.048 9.055 2.978 2.482 8.434-9.18zM244.587 209.994c-2.858-7.092-3.956-14.987-8.22-21.332-6.135-9.132-17.92-13.662-22.9-23.473-2.114-4.167-2.778-8.934-2.8-13.606-.04-9.244 2.727-19.072 9.867-24.946 8.204-6.75 20.514-6.657 30.123-2.122 9.607 4.535 16.947 12.767 23.188 21.365 6.242 8.597 11.706 17.823 18.974 25.571 5.39 5.745 11.781 10.7 15.84 17.449 11.129 18.503-.321 41.915-19.967 48.593-17.263 5.866-38.133-12.674-44.105-27.5" fill="#22343D"/><path d="M219.994 340.493c1.709 1.405-.156.432 2.33 2.051-.555 6.21-6.298 10.122-6.298 10.122s-.243 9.886-2.088 9.683c-1.849-.2-.665-9.52-.665-9.52s-3.78 9.738-5.38 9.118c-1.599-.618 4.19-11.791 4.19-11.791s-8.114 11.167-9.228 9.406c-1.113-1.759 6.025-12.535 6.025-12.535s-8.814 9.242-9.81 7.745c-.995-1.492 10.519-14.344 10.519-14.344-5.33-.059-4.952-3.686-4.952-3.686l12.98.77s1.59 2.333 2.377 2.981M343.998 154.046c2.22.39.497-.347 3.379.492 4.734-4.301 4.105-11.058 4.105-11.058s7.939-6.367 6.623-7.61c-1.325-1.247-8.211 5.46-8.211 5.46s5.603-8.901 4.096-9.703c-1.505-.8-7.033 10.494-7.033 10.494s4.068-13.017 1.928-12.745c-2.134.274-6.493 12.319-6.493 12.319s2.05-12.33.206-12.136c-1.845.194-4.829 16.348-4.829 16.348-4.347-3.538-7.39-1.273-7.39-1.273l9.514 9.328s3.084-.094 4.105.084M289.657 208.036c4.015-.627 16.261 7.31 13.145 23.425-.26 1.353-2.028 4.332-2.468 5.564-.556 1.56 3.776 7.27 3.776 7.27l-11.183 3.574c-.477-3.378.326-8.315-3.288-9.783-1.352-.549-2.799-.896-4.074-1.593-3.444-1.88-5.282-5.994-6.696-9.361-1.056-2.517-1.86-5.223-1.83-7.954.073-6.876 6.163-10.134 12.618-11.142" fill="#FFC6B2"/><path d="M312.05 252.173c0-5.8-1.839-8.015-7.927-8.015-6.088 0-14.125 2.215-14.125 8.015 0 5.803 4.3 13.063 10.39 13.063 6.087 0 11.663-7.26 11.663-13.063" fill="#FFC6B2"/><path d="M307.243 241.347s18.93-19.519 22.717-38.64c3.788-19.118 10.223-50.143 10.223-50.143l7.194 1.973s3.41 42.4 0 48.893c-3.406 6.494-22.719 51.588-22.34 63.131l-17.794-25.214zM273.498 250.797s-6.437 1.082-16.282 23.45c-9.845 22.366-40.136 64.006-40.136 64.006l4.923 4.533s29.533-22.003 35.213-35.35c5.678-13.348 12.872-29.942 16.282-29.222 3.406.723 17.795-19.12 0-27.417" fill="#FFC6B2"/><path d="M324.18 269.543l8.814-24.33s-1.36-11.41-18.757-15.501l-9.856 14.2 19.799 25.631zM276.436 248.93s-10.4.877-18.828 19.39c0 0 9.27 12.799 16.051 13.23 0 0 25.188-21.529 2.777-32.62" fill="#FF7B5B"/><path d="M305.01 468.488s-15.012 30.655-16.767 24.98c-1.752-5.678-1.173-19.313-.233-21.259.944-1.947 7.082-10.545 7.082-10.545l9.918 6.824z" fill="#FFC6B2"/><path d="M306.157 322.747l13.728-5.249s40.743 71.986 40.574 91.958c-.17 19.97-55.957 59.957-55.957 59.957l-9.41-7.749s26.442-38.879 35.65-48.968c4.604-5.046-28.358-29.772-33.35-53.564-4.993-23.791 8.765-36.385 8.765-36.385" fill="#654287"/><path d="M223.615 452.43s-28.08 20.698-26.913 14.889c1.172-5.815 8.241-17.68 10.014-19 1.776-1.318 11.363-6.284 11.363-6.284l5.536 10.394z" fill="#FFC6B2"/><path d="M268.806 348.238l40.617-23.54s1.612 81.77-8.139 99.45c-9.75 17.68-78.565 28.881-78.565 28.881l-4.64-10.994s42.456-25.296 55.491-30.246c13.036-4.953-4.764-63.55-4.764-63.55" fill="#775298"/><path d="M292.996 308.596s-29.907 10.59-24.19 39.642c5.717 29.052 15.246 34.498 15.246 34.498l17.151-28.142 17.22-36.856-17.22-2.184-8.207-6.958z" fill="#775298"/><path d="M307.243 241.347s22.018 12.34 22.018 40.223c0 0-2.797 31.79-7.33 38.735 0 0-7.37 1.8-16.558 0-9.633-1.886-18.956-8.657-18.956-8.657l-7.525-38.92-5.853-22.724 3.173-1.047 16.56-1.819s-2.38 24.737 16.111 12.453c3.895-2.588-4.848-15.486-4.848-15.486l3.208-2.758z" fill="#FF7B5B"/><path fill="#FFF" d="M320.72 135.979l46.165 26.93 25.969-49.051-43.28-24.045zM384.944 370.787l33.017-20.44-27.278-47.614-30.182 19.571z"/><path d="M222.376 167.89c.087-.077 1.106.848 2.718 2.736 1.605 1.89 3.795 4.763 5.993 8.641 2.206 3.862 4.389 8.762 5.948 14.45 1.613 5.645 2.695 11.991 5.175 18.104 1.288 3.02 2.848 5.83 4.705 8.316a45.157 45.157 0 006.09 6.526c4.372 3.679 8.952 6.21 13.033 7.671 4.077 1.483 7.57 2.148 9.997 2.386 2.426.269 3.797.308 3.798.468.007.1-1.36.308-3.85.26-2.49-.02-6.113-.495-10.381-1.863-4.27-1.349-9.096-3.845-13.71-7.605a45.008 45.008 0 01-6.443-6.74c-1.965-2.587-3.625-5.544-4.972-8.71-2.584-6.389-3.605-12.79-5.107-18.36a67.123 67.123 0 00-5.447-14.27c-2.004-3.881-3.994-6.823-5.404-8.829-1.418-2.001-2.25-3.086-2.143-3.18M279.094 136.383c.34-.052.67 4.493 3.212 11.215a50.538 50.538 0 005.872 11.061c1.355 1.934 2.916 3.839 4.682 5.737 1.753 1.907 3.664 3.843 5.469 6.015 3.62 4.383 6.111 9.121 8.456 13.303 2.33 4.223 4.184 8.24 5.127 11.833.983 3.583 1.04 6.666.729 8.712-.326 2.055-.837 3.096-.922 3.068-.162-.043.103-1.143.195-3.134.08-1.988-.173-4.885-1.272-8.27-1.063-3.4-2.975-7.232-5.36-11.365-2.424-4.132-4.936-8.774-8.395-12.952-1.736-2.09-3.619-4.02-5.383-5.974-1.774-1.944-3.388-3.97-4.749-5.995-2.73-4.057-4.554-8.1-5.696-11.595a41.925 41.925 0 01-1.9-8.474c-.234-2.036-.17-3.175-.065-3.185" fill="#22343D"/><path d="M293.247 225.553c-.017-.13.735-.25 1.445-1.084.163-.192.328-.473.325-.637-.004-.175-.126-.48-.337-.656a.96.96 0 00-.785-.26c-.333.025-.737.19-1.266.27-1.158.153-2.062-.5-2.656-1.031a9.45 9.45 0 01-1.424-1.63c-.692-1.02-.907-1.758-.801-1.812.123-.065.54.545 1.32 1.4.39.426.882.914 1.462 1.384.573.456 1.273.872 1.972.762.37-.048.803-.221 1.329-.257.535-.053 1.13.194 1.458.562.347.376.542.819.501 1.343-.103.537-.388.788-.624 1.022-1.018.891-1.951.746-1.919.624" fill="#FF7B5B"/><path d="M298.703 226.321l-8.866 3.224s7.523 6.582 8.866-3.224" fill="#FFF"/><path d="M288.952 225.772c.354.674-.17 1.646-1.172 2.172-1.001.528-2.1.41-2.454-.263-.354-.671.17-1.644 1.172-2.172 1.002-.527 2.1-.41 2.454.263M299.463 220.382c.29.703-.323 1.622-1.368 2.054-1.046.433-2.13.214-2.42-.49-.29-.702.323-1.62 1.37-2.053 1.045-.432 2.128-.214 2.418.49" fill="#FFB2A0"/><path d="M290.1 238.322s2.966.604 6.747-.34c0 0-1.864 1.81-4.91 2.231 0 0-.682-1.261-1.838-1.89" fill="#FFA192"/><path d="M293.13 218.392a.79.79 0 11-1.023 1.204.79.79 0 011.023-1.204M287.172 221.82a.79.79 0 11-1.023 1.204.79.79 0 011.023-1.204M293.165 215.093c-.079.254-.819.244-1.632.49-.82.222-1.443.622-1.645.45-.209-.145.274-1.034 1.387-1.35 1.11-.32 1.99.176 1.89.41M282.872 221.31c-.199-.147.113-.995.871-1.842.766-.867 1.747-1.156 1.849-.915.11.236-.488.785-1.16 1.547-.68.759-1.344 1.372-1.56 1.21" fill="#22343D"/><path d="M279.528 227.893s-2.844-2.388-4.209-.227c-1.364 2.161 6.143 3.299 6.143 3.299l-1.934-3.072z" fill="#FFC6B2"/><path d="M211.15 445.703s-4.077 1.772-5.14 2.837c-1.064 1.062-10.813 17.902-9.572 20.029 1.241 2.127 11.018-5.094 11.018-5.094s-8.181 1.55 3.694-17.772M290.706 467.97s-2.896 3.13-3.343 4.568c-.447 1.435-1.246 20.877.843 22.182 2.087 1.307 7.794-9.42 7.794-9.42s-6.823 5.343-5.294-17.285" fill="#775298"/></g></svg>