<svg width="542" height="609" xmlns="http://www.w3.org/2000/svg"><g transform="translate(.15 .15)" fill-rule="nonzero" fill="none"><path d="M538.5 395.15a182.85 182.85 0 01-58.9 105 223.2 223.2 0 01-34.5 25c-43.25 26.15-96.85 42-152.65 55l-9.55 2.15a96 96 0 01-25.3 2.3c-88.75-3.7-149.2-135.25-168-273.7C73.2 187.65 100.65 48.05 223.55 41.75c46.15-2.3 100 20.7 150 57.7 3.6 2.65 7.2 5.4 10.75 8.2l2.2 1.75c93.35 74.4 169.6 195.05 152 285.75z" fill="#FDE6D6"/><path d="M102.9 511.2c6.95 14.05 9.5 31.85-4.45 37.55-15.6 6.4-40.5-3.9-47.7-27.35-4.65-15-3.05-35.9 10-43.95C71.4 470.55 94.6 494 102.9 511.2z" fill="#F5F9FD"/><path d="M484.6 196.1c-6.25-5.45-11.25-13.55-5.95-19 5.3-5.45 19.6-5.9 28 4.05 5.35 6.35 9.05 16.75 5 23.1-3.6 5.4-19.25-1.5-27.05-8.15z" fill="#FFAD69"/><path d="M233.7 608.35a84.4 84.4 0 01-10-1.2.6.6 0 01-.5-.75.6.6 0 01.7-.5 84 84 0 0010 1.2.6.6 0 01.6.65.65.65 0 01-.8.6zm10 0a.6.6 0 01-.6-.6.55.55 0 01.55-.65 81.7 81.7 0 0010-1.3.65.65 0 01.75.5.6.6 0 01-.5.7 84.3 84.3 0 01-10 1.35h-.2zm-29.6-3.5a94.1 94.1 0 01-9.45-3.45.65.65 0 01-.35-.8.7.7 0 01.85-.35 91.2 91.2 0 009.3 3.4.65.65 0 01.45.8.7.7 0 01-.8.35v.05zm49.25-.3a.6.6 0 01-.6-.45.65.65 0 01.4-.8c1.45-.45 2.95-1 4.45-1.55l5-1.85a.6.6 0 01.8.35.55.55 0 01-.35.8l-5 1.9c-1.5.55-3.05 1.1-4.55 1.55l-.15.05zm18.7-7.05a.6.6 0 01-.55-.4.55.55 0 01.35-.8l9.3-3.7a.65.65 0 01.8.35.65.65 0 01-.35.8l-9.3 3.7-.25.05zm-86.35-.45h-.3c-2.9-1.55-5.8-3.3-8.65-5a.65.65 0 010-.85.6.6 0 01.85 0c2.8 1.85 5.7 3.55 8.55 5a.65.65 0 010 .85.65.65 0 01-.45-.05v.05zm105-7.05a.55.55 0 01-.55-.35.65.65 0 01.3-.85c3.1-1.25 6.2-2.55 9.25-3.9a.7.7 0 01.8.35.6.6 0 01-.3.8c-3.1 1.35-6.15 2.65-9.25 3.9l-.25.05zM179 586.2a.55.55 0 01-.35 0c-2.6-2-5-4.1-7.8-6.35a.621.621 0 01.8-.95c2.55 2.2 5 4.35 7.75 6.3a.6.6 0 010 .9.6.6 0 01-.5.05l.1.05zm140-4.1a.6.6 0 01-.55-.4.6.6 0 01.3-.8c3.05-1.4 6.1-2.75 9.1-4.2a.65.65 0 11.5 1.15l-9.1 4.2-.25.05zm18.15-8.5a.6.6 0 01-.55-.35.6.6 0 01.3-.85l8.9-4.5a.65.65 0 11.6 1.1c-3 1.55-5.95 3.05-9 4.5l-.25.1zm-173.4-.5a.55.55 0 01-.4 0c-2.333-2.3-4.683-4.7-7.05-7.2a.55.55 0 010-.85.65.65 0 01.9 0c2.35 2.5 4.7 5 7 7.15a.55.55 0 010 .85.5.5 0 01-.45 0v.05zm191.2-8.7a.7.7 0 01-.55-.35.65.65 0 01.25-.85c2.95-1.6 5.9-3.25 8.7-5a.65.65 0 01.85 0 .6.6 0 010 .85l-8.75 5-.5.35zm-205-5.9a.7.7 0 01-.5 0c-2.15-2.45-4.25-5-6.35-7.75a.605.605 0 01.95-.75c2.1 2.65 4.25 5 6.35 7.7a.65.65 0 010 .9l-.45-.1zm222.15-4.15a.55.55 0 01-.5-.3.6.6 0 010-.85c2.9-1.8 5.75-3.6 8.45-5.4a.6.6 0 11.85.85c-2.7 1.8-5.55 3.6-8.45 5.4l-.35.3zm16.75-11.05a.6.6 0 01-.5 0 .6.6 0 010-.85c2.75-2 5.45-3.95 8.05-5.95a.6.6 0 11.85.85c-2.6 2-5.3 4-8.1 5.95a.5.5 0 01-.15-.05l-.15.05zm-251.35-.5a.6.6 0 01-.5-.3c-1.95-2.6-3.9-5.35-5.8-8.15a.7.7 0 010-.9.65.65 0 01.9 0c1.9 2.75 3.85 5.5 5.75 8.15a.6.6 0 010 .85.65.65 0 01-.2.3l-.15.05zm267.25-11.65a.7.7 0 01-.5-.25.6.6 0 010-.85c2.55-2.15 5-4.35 7.55-6.55a.6.6 0 01.85 0 .65.65 0 010 .9l-7.6 6.55a.65.65 0 01-.15.15l-.15.05zm-278.55-5a.7.7 0 01-.55-.3c-1.75-2.75-3.55-5.65-5.3-8.5a.65.65 0 010-.85.6.6 0 01.85 0c1.7 2.85 3.5 5.7 5.25 8.5a.65.65 0 010 .85l-.25.3zm293.4-8.5a.45.45 0 01-.4 0 .55.55 0 010-.85c2.35-2.4 4.7-5 6.9-7.2a.6.6 0 01.85 0 .65.65 0 010 .9c-2.2 2.4-4.55 5-6.95 7.25a.6.6 0 01-.4-.1zm-303.7-8.6a.65.65 0 01-.55-.3c-1.6-2.85-3.25-5.8-5-8.8a.65.65 0 011.1-.6c1.6 3 3.25 5.95 5 8.75a.65.65 0 010 .85l-.55.1zm317.2-6.2h-.4a.65.65 0 010-.9c2.1-2.6 4.15-5 6.1-7.9a.6.6 0 11.85.85c-1.95 2.65-4 5.35-6.15 7.95a.55.55 0 01-.3 0h-.1zM106.4 491.4a.6.6 0 01-.55-.35c-1.55-3-3.05-6.05-4.45-9a.6.6 0 01.3-.8.6.6 0 01.8 0l4.45 9a.65.65 0 01-.25.85l-.3.3zm338.45-4.7h-.3a.6.6 0 010-.85c1.8-2.8 3.5-5.65 5-8.55a.65.65 0 111.1.6c-1.65 2.9-3.4 5.8-5 8.6a.7.7 0 01-.7.25l-.1-.05zM97.7 473.35a.6.6 0 01-.55-.35c-1.4-3.05-2.75-6.1-4.1-9.2a.6.6 0 01.3-.8.6.6 0 01.85.35c1.3 3.05 2.7 6.1 4.05 9.1a.65.65 0 01-.3.85l-.25.05zm356.9-4.1a.65.65 0 01-.3-.85c1.45-2.95 2.8-6 4.1-9.1a.6.6 0 01.8-.3.65.65 0 01.35.8c-1.3 3.1-2.65 6.2-4.1 9.15a.65.65 0 01-.85.3zm-365-14.3a.55.55 0 01-.55-.35c-1.3-3.1-2.55-6.2-3.75-9.3a.6.6 0 01.35-.85.65.65 0 01.8.4c1.2 3.1 2.45 6.2 3.75 9.25a.7.7 0 01-.35.85h-.25zm372.6-4.2a.65.65 0 01-.4-.8c1.1-3.15 2.05-6.35 2.95-9.5a.618.618 0 111.2.3c-.9 3.2-1.9 6.45-2.95 9.6a.65.65 0 01-.6.4h-.2zm-380-14.45a.65.65 0 01-.6-.4c-1.15-3.1-2.3-6.25-3.4-9.4a.617.617 0 111.15-.45c1.15 3.15 2.25 6.3 3.45 9.45a.65.65 0 01-.4.8h-.2zm385.25-5a.65.65 0 01-.5-.75c.7-3.3 1.35-6.6 1.85-10a.65.65 0 01.75-.5.6.6 0 01.5.7c-.5 3.25-1.15 6.55-1.85 10a.7.7 0 01-.45 1l-.3-.45zM75.8 417.45a.7.7 0 01-.6-.45c-1.05-3.15-2.1-6.3-3.1-9.5a.65.65 0 011.2-.4c1 3.2 2.05 6.35 3.1 9.5a.6.6 0 01-.4.8l-.2.05zm395-5.65a.55.55 0 01-.55-.65c.35-3.25.65-6.6.85-10a.6.6 0 01.65-.6.7.7 0 01.6.65c0 3.4-.5 6.75-.85 10a.65.65 0 01-.5.55l-.2.05zM69.6 398.35a.65.65 0 01-.6-.4c-.95-3.2-1.9-6.45-2.8-9.65a.6.6 0 01.45-.75.6.6 0 01.75.4c.9 3.25 1.85 6.45 2.8 9.6a.65.65 0 01-.4.8h-.2zm402.45-6.6a.6.6 0 01-.6-.6c0-3.3-.25-6.65-.5-10a.6.6 0 01.55-.7.65.65 0 01.7.6c0 3.3.45 6.7.5 10a.65.65 0 01-.6.65l-.05.05zM64.3 379.1a.6.6 0 01-.6-.45v-.5c-.85-3.25-1.7-6.5-2.5-10a.7.7 0 01.5-.75.7.7 0 01.75.45c.8 3.25 1.6 6.5 2.45 9.7v.5a.65.65 0 01-.45.8l-.15.25zm406.05-7.35a.65.65 0 01-.65-.5c-.5-3.2-1.1-6.5-1.8-10a.65.65 0 01.45-.75.65.65 0 01.75.5c.75 3.3 1.35 6.6 1.85 10a.6.6 0 01-.5.7l-.1.05zM59.6 359.15a.6.6 0 01-.6-.5c-.75-3.3-1.45-6.6-2.05-10a.6.6 0 01.5-.75.6.6 0 01.7.5c.65 3.2 1.35 6.5 2.05 10a.6.6 0 01-.45.75h-.15zm406.7-6.8a.6.6 0 01-.6-.5c-.9-3.1-1.9-6.35-2.95-9.5a.6.6 0 01.4-.8.6.6 0 01.8.4c1.05 3.2 2.05 6.45 2.95 9.6a.6.6 0 01-.45.75l-.15.05zM55.5 339.5a.6.6 0 01-.6-.5c-.6-3.3-1.15-6.65-1.65-10a.65.65 0 01.55-.75.65.65 0 01.7.55c.5 3.3 1.05 6.6 1.6 10a.65.65 0 01-.5.75l-.1-.05zm404.1-6.15a.65.65 0 01-.6-.4c-1.2-3.05-2.45-6.15-3.8-9.25a.6.6 0 01.3-.8.65.65 0 01.85.3c1.35 3.1 2.65 6.2 3.8 9.3a.6.6 0 01-.35.8l-.2.05zM52.5 319.7a.65.65 0 01-.65-.55c-.4-3.3-.8-6.65-1.15-10a.6.6 0 01.55-.7.65.65 0 01.7.55c.35 3.3.75 6.65 1.15 10a.6.6 0 01-.55.7h-.05zm399.2-4.7a.75.75 0 01-.6-.35c-1.4-2.9-2.95-5.9-4.55-8.9a.65.65 0 010-.85.65.65 0 01.85.25c1.6 3 3.15 6 4.6 8.95a.65.65 0 01-.3.85v.05zM50.4 299.75a.6.6 0 01-.6-.55c0-3.4-.5-6.8-.65-10a.65.65 0 01.6-.65.6.6 0 01.65.6c0 3.25.4 6.6.65 10a.6.6 0 01-.6.65l-.05-.05zm391.8-2.4a.55.55 0 01-.5-.3c-1.65-2.85-3.4-5.7-5-8.55a.7.7 0 010-.9.65.65 0 01.85 0c1.8 2.9 3.55 5.75 5 8.6a.6.6 0 010 .85l-.35.3zm-10.6-17a.8.8 0 01-.55 0c-1.8-2.7-3.7-5.45-5.65-8.25a.6.6 0 010-.85.65.65 0 01.9 0c2 2.75 3.9 5.55 5.7 8.25a.65.65 0 010 .85.5.5 0 01-.4 0zm-382-.6a.6.6 0 01-.6-.6v-7.05-3a.6.6 0 01.6-.6.6.6 0 01.65.6v10a.6.6 0 01-.6.65h-.05zm370.55-15.7a.6.6 0 01-.5 0c-2.05-2.7-4.1-5.35-6.15-7.9a.6.6 0 010-.85.6.6 0 01.9 0c2 2.55 4.1 5 6.15 7.9a.65.65 0 010 .9l-.4-.05zM49.6 259.7a.6.6 0 01-.6-.65c0-3.35.35-6.7.6-10a.6.6 0 01.65-.6.7.7 0 01.6.7c0 3.25-.45 6.65-.6 10a.65.65 0 01-.65.55zm357.85-11.3a.65.65 0 01-.5 0l-6.55-7.6a.6.6 0 010-.85.6.6 0 01.9 0c2.15 2.4 4.35 5 6.55 7.55a.65.65 0 010 .9.55.55 0 01-.4 0zM51.2 239.75a.65.65 0 01-.55-.7c.4-3.35.85-6.7 1.4-10a.6.6 0 01.7-.5.55.55 0 01.5.7c-.5 3.2-.95 6.55-1.35 10a.65.65 0 01-.7.5zm342.95-6.35a.55.55 0 01-.45 0c-2.25-2.45-4.6-5-6.9-7.25a.65.65 0 010-.9.7.7 0 01.9 0c2.3 2.4 4.65 5 6.9 7.3a.65.65 0 010 .9.8.8 0 01-.45-.05zM54.6 220a.6.6 0 01-.5-.75c.65-3.25 1.45-6.55 2.25-10a.6.6 0 01.8-.45.65.65 0 01.45.75c-.85 3.2-1.6 6.5-2.3 9.75a.65.65 0 01-.7.7zm325.85-.95a.5.5 0 01-.45 0c-2.45-2.35-5-4.7-7.25-6.95a.6.6 0 010-.85.65.65 0 01.9 0c2.4 2.25 5 4.6 7.25 6.95a.65.65 0 010 .9.6.6 0 01-.7-.05h.25zm-14.7-13.75a.65.65 0 01-.4 0c-2.45-2.25-5-4.45-7.55-6.6a.7.7 0 010-.9.65.65 0 01.9 0l7.55 6.6a.7.7 0 010 .9.65.65 0 01-.75 0h.25zM59.6 200.6a.7.7 0 01-.4-.8c1.05-3.25 2.15-6.45 3.35-9.5a.7.7 0 01.8-.35.6.6 0 01.35.8c-1.15 3-2.25 6.2-3.3 9.4a.65.65 0 01-.8.45zm290.7-8.35a.55.55 0 01-.4 0c-2.6-2.1-5-4.25-7.8-6.25a.65.65 0 01.8-1c2.55 2.05 5 4.15 7.8 6.3a.6.6 0 010 .85.7.7 0 01-.4.1zm-283.65-10.5a.6.6 0 01-.3-.85c1.4-3.05 2.95-6.05 4.55-8.95a.65.65 0 111.1.6c-1.6 2.85-3.1 5.85-4.55 8.9a.6.6 0 01-.8.3zm267.95-1.85h-.35c-2.65-2-5.4-4-8.1-5.9a.65.65 0 01.7-1.05c2.75 1.95 5.45 3.95 8.15 5.95a.6.6 0 010 .85.6.6 0 01-.4.15zm-16.35-11.65a.4.4 0 01-.35 0l-8.3-5.6a.617.617 0 01.65-1.05c2.833 1.8 5.633 3.65 8.4 5.55a.65.65 0 010 .85.5.5 0 01-.4.25zm-241.8-3.75h-.35a.6.6 0 010-.85c1.9-2.85 3.9-5.55 5.95-8.15a.6.6 0 01.85 0 .6.6 0 010 .9c-2 2.55-4 5-5.85 8a.55.55 0 01-.6.1zm225-7.1h-.35c-2.8-1.75-5.7-3.45-8.6-5a.617.617 0 11.65-1.05c2.9 1.65 5.8 3.4 8.6 5a.6.6 0 010 .85.55.55 0 01-.35.2h.05zm-212.5-8.5a.6.6 0 01-.4 0 .6.6 0 010-.85c2.35-2.45 5-5 7.3-6.95a.65.65 0 01.9 0 .65.65 0 010 .9c-2.45 2.15-5 4.45-7.2 6.85a.65.65 0 01-.65.05h.05zm195-1.5h-.3c-2.933-1.6-5.883-3.15-8.85-4.65a.65.65 0 01-.2-1 .6.6 0 01.85-.25c2.9 1.45 5.9 3.05 8.85 4.65a.6.6 0 010 .85.55.55 0 01-.3.4h-.05zm-17.85-9.05h-.3c-2.95-1.4-6.05-2.8-9.1-4.1a.65.65 0 01-.3-.85.6.6 0 01.8-.3c3.1 1.35 6.15 2.7 9.15 4.15a.6.6 0 01.3.8.6.6 0 01-.5.3h-.05zm-162.15-2.55a.55.55 0 01-.5-.25.6.6 0 010-.85c2.75-1.95 5.55-3.8 8.45-5.45a.65.65 0 01.65 1.1c-2.85 1.65-5.7 3.45-8.35 5.35a.6.6 0 01-.2.1h-.05zm143.75-5.4c-3.1-1.2-6.25-2.4-9.35-3.5a.65.65 0 01-.4-.8.7.7 0 01.8-.35c3.15 1.1 6.3 2.3 9.4 3.5a.6.6 0 110 1.2l-.45-.05zm-126.45-4.6a.7.7 0 01-.55-.35.65.65 0 01.3-.85c3-1.35 6.1-2.65 9.3-3.8a.6.6 0 01.8.35.65.65 0 01-.35.8 126.48 126.48 0 00-9.2 3.8l-.3.05zm107.55-2.05c-3.2-1-6.4-1.9-9.6-2.75a.7.7 0 01-.45-.75.65.65 0 01.85-.5c3.15.85 6.4 1.75 9.65 2.8a.6.6 0 110 1.2h-.45zM140.1 119a.7.7 0 01-.6-.45.65.65 0 01.45-.8c3.15-.85 6.45-1.6 10-2.25a.6.6 0 01.75.45.65.65 0 01-.5.75c-3.3.65-6.55 1.4-9.7 2.25l-.4.05zm69.5-.4c-3.3-.7-6.6-1.35-10-1.85a.65.65 0 01-.5-.75.6.6 0 01.7-.5c3.2.55 6.55 1.15 10 1.9a.65.65 0 01.5.75.6.6 0 01-.7.45zm-20-3.2c-3.3-.35-6.65-.6-10-.75a.65.65 0 110-1.25c3.3 0 6.7.4 10 .75a.6.6 0 01.55.7.65.65 0 01-.55.55zm-30 0a.55.55 0 01-.6-.55.55.55 0 01.55-.65c3.25-.35 6.6-.6 10-.7a.65.65 0 01.6.6.6.6 0 01-.6.65c-3.35 0-6.7.3-10 .65h.05z" fill="#D8D5DB"/><path d="M469.6 395.6v1.65c-1.25 13.95-13.25 43.7-25 70 .4 9.5.7 18 .75 25v3.7h-1.45c.35 6.2.8 16.95 1.15 29.3-43.25 26.15-96.85 42-152.65 55l-9.55 2.15a96 96 0 01-25.3 2.3 20.95 20.95 0 01-.55-6.4 678.5 678.5 0 018.8-84.1l-3.1-.45c11.35-38.3 17.05-93.55 20-141.5.35-5.65.65-11.15.9-16.6-7.25 7.4-12.25 12-12.25 12L256 322.4c-18.95 13.7-36.85 25.8-45.6 31.4-7.25 6.8-19.6 7.8-29.3-5-15.7-20.55-37.85-106.8-40.45-121.45a3.85 3.85 0 01-1.05-.6c-3.6-5-16.2-32.25-15-37.55 1.2-5.3 7.1-16.75 13.95-18.3-.8-2.45-1.7-5-3-8.55-2.9-7.9-6.35-15.9-1.15-15 5.2.9 17.1 30 19.15 35 .3-2.35.6-4.25.6-4.25 1.6-4.7 10-7.2 8.75 0-1.45 10 2.05 15 1.9 23.25V203c.02.3.02.6 0 .9a2.65 2.65 0 010 .65v.35a60.85 60.85 0 01-6.4 17.55c5.45 17.8 30.45 64.35 45 90 8.9-7.4 20-16.2 31.5-25l-1-1.65s59.3-55.45 90-59.65c.45-2.15.75-4.5 1.05-6.95.3-2.45.5-6.6.6-10-22.55-.25-24.65-16.85-22.4-37.95l-3.55-.9 5.25-13.6v-1a3.95 3.95 0 01-.95-2.4c0-1.65.45-3.05 1.35-3.1a.55.55 0 01.4 0c0-1.2.4-2.4.55-3.6.4-2.65.9-5 1.4-7.45a10.5 10.5 0 00-4.05 0l-.4-2.45a14.25 14.25 0 015 0 67.3 67.3 0 017.95-19c-7.2-.5-10.6-2.85-5.6-8.65 7.75-9 44.45-13.5 62.95-9.7 6.5 1.35 10.75 3.7 10.8 7.2v1a10.95 10.95 0 004.7-3.8l2.1 1.4a14.1 14.1 0 01-4.6 4.15l-.75.4c19.8 12.9-8.2 82-8.3 82-.55 11.85-.9 23.55-.85 31.8 17.8 2.05 29.05 7.25 36.5 15.4 20 16.05 50.7 81.9 50.7 81.9l-12.55 3.3c8.95 28.7 16.55 57.5 18.75 67.15a17.05 17.05 0 01-.35 4.3z" fill="#D1CDD3"/><rect fill="#4D8DFF" opacity=".3" transform="rotate(180 209.575 154.125)" x="42.25" y="23.5" width="334.65" height="261.25" rx="33.6"/><path d="M354.6 308.4H40c-22.091 0-40-17.909-40-40V40C0 17.909 17.909 0 40 0h314.6c22.091 0 40 17.909 40 40v228.25a40.001 40.001 0 01-40 40.15zM40 1.1C18.528 1.128 1.128 18.528 1.1 40v228.25c.028 21.472 17.428 38.872 38.9 38.9h314.6c21.472-.028 38.872-17.428 38.9-38.9V40c-.028-21.472-17.428-38.872-38.9-38.9H40z" fill="#4D8DFF" opacity=".3"/><g opacity=".3" transform="translate(69.85 54.85)" fill="#4D8DFF"><rect transform="rotate(180 28.1 24.225)" x=".15" y="2.4" width="55.9" height="43.65" rx="5.6"/><rect transform="rotate(180 102.5 24.225)" x="74.55" y="2.4" width="55.9" height="43.65" rx="5.6"/><rect transform="rotate(180 176.95 24.225)" x="149" y="2.4" width="55.9" height="43.65" rx="5.6"/><rect transform="rotate(180 251.4 24.225)" x="223.45" y="2.4" width="55.9" height="43.65" rx="5.6"/></g><g opacity=".3" transform="translate(69.85 129.85)" fill="#4D8DFF"><rect transform="rotate(180 28.1 24.275)" x=".15" y="2.45" width="55.9" height="43.65" rx="5.6"/><rect transform="rotate(180 102.5 24.275)" x="74.55" y="2.45" width="55.9" height="43.65" rx="5.6"/><rect transform="rotate(180 176.95 24.275)" x="149" y="2.45" width="55.9" height="43.65" rx="5.6"/><rect transform="rotate(180 251.4 24.275)" x="223.45" y="2.45" width="55.9" height="43.65" rx="5.6"/></g><g opacity=".3" transform="translate(69.85 204.85)" fill="#4D8DFF"><rect transform="rotate(180 28.1 24.275)" x=".15" y="2.45" width="55.9" height="43.65" rx="5.6"/><rect transform="rotate(180 102.5 24.275)" x="74.55" y="2.45" width="55.9" height="43.65" rx="5.6"/><rect transform="rotate(180 176.95 24.275)" x="149" y="2.45" width="55.9" height="43.65" rx="5.6"/><rect transform="rotate(180 251.4 24.275)" x="223.45" y="2.45" width="55.9" height="43.65" rx="5.6"/></g><rect fill="#4D8DFF" transform="rotate(180 253.9 71.975)" x="225.95" y="50.15" width="55.9" height="43.65" rx="5.6"/><rect fill="#FF4E4A" transform="rotate(180 253.9 222.025)" x="225.95" y="200.2" width="55.9" height="43.65" rx="5.6"/><rect fill="#FFC84D" transform="rotate(180 105 147.025)" x="77.05" y="125.2" width="55.9" height="43.65" rx="5.6"/><path d="M415.95 148.6c-1.7 10.9-5 70-3.65 83.5s-65 17.6-56.15 2.55c8.85-15.05 2.55-65 2.55-65l57.25-21.05z" fill="#FFAD69"/><path d="M411.35 150.3l-52.65 19.25a273.5 273.5 0 011.4 49.65c21.7-8.95 16.9-27.15 16.9-36.95 0-8.9 34.4-30.25 34.35-31.95zM341.95 152.55l-8.2 17.5 10 4.05z" fill="#D88344"/><path d="M341.8 146.75c-5 33.65-13.2 67.2 27.6 61.65 40.8-5.55 47.1-57.75 47-67.65-.65-52.6-65-60.1-74.6 6z" fill="#FFAD69"/><path d="M421.35 109.95a15.55 15.55 0 005.35-4.55l-2.1-1.4a11.35 11.35 0 01-5 3.8 6.8 6.8 0 000-1.05c0-13.6-63.3-9.7-73.75 2.45-6.2 7.2.4 9.1 11.1 8.75a5 5 0 00-1.7 2.4c-7.05 34.55 26.25 68.55 30 71.45h27.2s28.5-69.15 8.9-81.85z" fill="#232323"/><path d="M505.35 391.35c-3.6-16.05-22.35-85.5-37.25-118.8l-38.05 8.1s24.55 82.1 37.6 112.75c-3.05 16.5-18.45 93.25-27.95 114.7-4.2 10 11.7 13.85 15.55 9.05 3.85-4.8 47.55-92.6 50-120v-1.65c.25-1.37.283-2.77.1-4.15z" fill="#FFAD69"/><path d="M448.2 238.7c20 15.65 50.95 82.2 50.95 82.2l-65.5 17s-38.1-140.4 14.55-99.2z" fill="#E5AA33"/><path d="M479.6 500.2a223.2 223.2 0 01-34.5 25c-43.25 26.15-96.85 42-152.65 55a12.7 12.7 0 010-1.95c1.8-30.95 5-66.3 10-88.75l143.05 2.85 33.8.7c0 1.7.3 4.1.3 7.15z" fill="#232323"/><path d="M400.3 222.75c39.25 1.3 52.55 14.55 59.3 37.5 7.7 26 21.25 183.25 21.25 235.75 0 0-117.55 8.35-182.65-2.35 20.4-68.95 22.6-192.9 23.05-230 .3-27.55 29.25-42.55 79.05-40.9z" fill="#FFC84D"/><path d="M408.15 251.25a3.7 3.7 0 01-3-1.5l-10.55-14.2a3.75 3.75 0 013-6h16.35a3.8 3.8 0 013.5 5l-5.7 14.2a3.75 3.75 0 01-3 2.3l-.6.2zm-10.65-19.2a1.25 1.25 0 00-1.15.7 1.2 1.2 0 000 1.3l10.65 14.2c.266.36.705.552 1.15.5a1.2 1.2 0 001-.8l5.7-14.15a1.15 1.15 0 000-1.2 1.25 1.25 0 00-1.05-.55h-16.3z" fill="#FFF"/><path d="M342.65 153.1c0 1.65-.45 3.05-1.35 3.1-.9.05-1.7-1.2-1.8-2.85-.1-1.65.45-3 1.35-3.1.9-.1 1.7 1.2 1.8 2.85zM348.65 143.2a9.3 9.3 0 00-9.5-4.05l-.55-2.4a11.8 11.8 0 0112.15 5l-2.1 1.45z"/><path d="M321.1 272.8c-.3 18.15-1 47.1-2.95 79.45 16.65-20 33-43.65 33.95-61.4 1.35-24.4-12.5-25.9-31-18.05z" fill="#E5AA33"/><path d="M343.25 281.25l-20-33.25s-55 39.65-84.55 64.2c-14.6-25.7-39.55-72.25-45-90a60 60 0 006.35-17.5.7.7 0 000-.35v-.65a6.2 6.2 0 000-.9v-1.7c0-8.05-3.35-13-1.9-23.2 1-7.15-7.15-4.7-8.75 0l-.65 4.2c-2.05-5-14.4-34.35-19.1-35-4.7-.65-1.75 7.25 1.15 15 1.25 3.45 2.2 6.15 3 8.55-6.9 1.6-13 13.4-13.95 18.35-.95 4.95 11.55 32.55 15 37.55.267.334.588.621.95.85 2.55 14.7 25 100.9 40.4 121.5 9.7 12.75 22.1 11.75 29.35 5 17.8-11.35 72.5-48.95 97.7-72.65z" fill="#FFAD69"/><path d="M377 248c-2 36.7-70 99.65-70 99.65l-37.9-62S380.7 181.25 377 248z" fill="#FFC84D"/><path d="M356 157.15c-1.5 8.8-3.7 17.55 4.55 16.9 8.25-.65 10.35-14.35 10.5-16.95.7-14-12.1-17.35-15.05.05z" fill="#FFAD69"/></g></svg>